<svg width="21" height="20" viewBox="0 0 21 20" fill="none" xmlns="http://www.w3.org/2000/svg">
<path d="M11.5275 0.000732422C12.6529 0.00259242 13.2232 0.00855245 13.716 0.0232224L13.9101 0.0295625C14.1343 0.0375325 14.3555 0.0475324 14.6222 0.0600324C15.6863 0.109202 16.4122 0.277532 17.0497 0.525032C17.7088 0.779202 18.2655 1.12253 18.8213 1.67837C19.3763 2.2342 19.7197 2.79253 19.9747 3.45003C20.2213 4.0867 20.3897 4.81337 20.4397 5.87753C20.4516 6.1442 20.4612 6.3654 20.4691 6.58964L20.4754 6.78373C20.49 7.27647 20.4967 7.84686 20.4988 8.9723L20.4996 9.7179C20.4997 9.809 20.4997 9.903 20.4997 10L20.4996 10.2821L20.499 11.0278C20.4971 12.1532 20.4912 12.7236 20.4765 13.2163L20.4701 13.4104C20.4622 13.6347 20.4522 13.8559 20.4397 14.1225C20.3905 15.1867 20.2213 15.9125 19.9747 16.55C19.7205 17.2092 19.3763 17.7659 18.8213 18.3217C18.2655 18.8767 17.7063 19.22 17.0497 19.475C16.4122 19.7217 15.6863 19.89 14.6222 19.94C14.3555 19.9519 14.1343 19.9616 13.9101 19.9694L13.716 19.9757C13.2232 19.9904 12.6529 19.997 11.5275 19.9992L10.7818 20C10.6907 20 10.5967 20 10.4997 20H10.2176L9.47186 19.9993C8.34646 19.9975 7.77608 19.9915 7.28333 19.9768L7.08925 19.9705C6.865 19.9625 6.6438 19.9525 6.37714 19.94C5.31297 19.8909 4.58797 19.7217 3.94964 19.475C3.2913 19.2209 2.7338 18.8767 2.17797 18.3217C1.62214 17.7659 1.27964 17.2067 1.02464 16.55C0.777136 15.9125 0.609636 15.1867 0.559636 14.1225C0.547756 13.8559 0.538066 13.6347 0.530216 13.4104L0.523926 13.2163C0.509296 12.7236 0.502626 12.1532 0.500466 11.0278L0.500336 8.9723C0.502196 7.84686 0.508146 7.27647 0.522816 6.78373L0.529166 6.58964C0.537136 6.3654 0.547136 6.1442 0.559636 5.87753C0.608796 4.81253 0.777136 4.08753 1.02464 3.45003C1.2788 2.7917 1.62214 2.2342 2.17797 1.67837C2.7338 1.12253 3.29214 0.780032 3.94964 0.525032C4.58714 0.277532 5.31214 0.110032 6.37714 0.0600324C6.6438 0.0481624 6.865 0.0384725 7.08925 0.0306225L7.28333 0.0243323C7.77608 0.00969229 8.34646 0.00302236 9.47186 0.00086236L11.5275 0.000732422ZM10.4997 5.00003C7.73674 5.00003 5.49964 7.23956 5.49964 10C5.49964 12.7629 7.73917 15 10.4997 15C13.2626 15 15.4997 12.7605 15.4997 10C15.4997 7.23713 13.2601 5.00003 10.4997 5.00003ZM10.4997 7.00003C12.1566 7.00003 13.4997 8.3427 13.4997 10C13.4997 11.6569 12.157 13 10.4997 13C8.84276 13 7.49964 11.6574 7.49964 10C7.49964 8.3431 8.84226 7.00003 10.4997 7.00003ZM15.7497 3.50003C15.0604 3.50003 14.4997 4.05994 14.4997 4.74918C14.4997 5.43843 15.0596 5.9992 15.7497 5.9992C16.4389 5.9992 16.9997 5.4393 16.9997 4.74918C16.9997 4.05994 16.438 3.49917 15.7497 3.50003Z" fill="#F7E1E1"/>
</svg>
