<svg width="25" height="24" viewBox="0 0 25 24" fill="none" xmlns="http://www.w3.org/2000/svg">
<path d="M12.7436 4C13.2777 4.00294 14.614 4.01586 16.0338 4.07273L16.5372 4.09468C17.9667 4.16236 19.395 4.27798 20.1034 4.4755C21.0483 4.74095 21.791 5.5155 22.042 6.49732C22.4417 8.05641 22.4917 11.0994 22.4979 11.8358L22.4988 11.9884V11.9991C22.4988 11.9991 22.4988 12.0028 22.4988 12.0099L22.4979 12.1625C22.4917 12.8989 22.4417 15.9419 22.042 17.501C21.7875 18.4864 21.0448 19.261 20.1034 19.5228C19.395 19.7203 17.9667 19.8359 16.5372 19.9036L16.0338 19.9255C14.614 19.9824 13.2777 19.9953 12.7436 19.9983L12.5092 19.9991H12.4988C12.4988 19.9991 12.4953 19.9991 12.4884 19.9991L12.2542 19.9983C11.1238 19.9921 6.39738 19.941 4.89417 19.5228C3.94926 19.2573 3.20658 18.4828 2.95553 17.501C2.55586 15.9419 2.5059 12.8989 2.49966 12.1625V11.8358C2.5059 11.0994 2.55586 8.05641 2.95553 6.49732C3.21006 5.51186 3.95274 4.73732 4.89417 4.4755C6.39738 4.05723 11.1238 4.00622 12.2542 4H12.7436ZM10.4988 8.49914V15.4991L16.4988 11.9991L10.4988 8.49914Z" fill="#FAE8E8"/>
</svg>
